<mxfile host="65bd71144e">
    <diagram id="Sid9HZ9XPad7ZZ9gEzjL" name="Page-1">
        <mxGraphModel dx="5824" dy="2698" grid="1" gridSize="10" guides="1" tooltips="1" connect="1" arrows="1" fold="1" page="1" pageScale="1" pageWidth="850" pageHeight="1100" math="0" shadow="0">
            <root>
                <mxCell id="0"/>
                <mxCell id="1" parent="0"/>
                <mxCell id="033BDEKzq4VgO9bZ4xeW-1" value="&lt;font style=&quot;font-size: 40px;&quot;&gt;&lt;b&gt;SchoolHub Architecture&lt;/b&gt;&lt;/font&gt;" style="text;html=1;align=center;verticalAlign=middle;resizable=0;points=[];autosize=1;strokeColor=#6F0000;fillColor=#a20025;fontColor=#ffffff;" vertex="1" parent="1">
                    <mxGeometry x="-550" y="-520" width="480" height="60" as="geometry"/>
                </mxCell>
                <mxCell id="033BDEKzq4VgO9bZ4xeW-5" style="edgeStyle=orthogonalEdgeStyle;html=1;entryX=0.002;entryY=0.367;entryDx=0;entryDy=0;entryPerimeter=0;fontSize=35;fillColor=#60a917;strokeColor=#2D7600;strokeWidth=3;endArrow=oval;endFill=1;shape=link;width=6;" edge="1" parent="1" source="033BDEKzq4VgO9bZ4xeW-4" target="033BDEKzq4VgO9bZ4xeW-1">
                    <mxGeometry relative="1" as="geometry"/>
                </mxCell>
                <mxCell id="033BDEKzq4VgO9bZ4xeW-4" value="&lt;b&gt;&lt;font style=&quot;font-size: 35px;&quot;&gt;Client-Side(Frontend)&lt;/font&gt;&lt;/b&gt;" style="text;html=1;align=center;verticalAlign=middle;resizable=0;points=[];autosize=1;strokeColor=#001DBC;fillColor=#0050ef;fontSize=40;fontColor=#ffffff;" vertex="1" parent="1">
                    <mxGeometry x="-930" y="90" width="380" height="60" as="geometry"/>
                </mxCell>
                <mxCell id="033BDEKzq4VgO9bZ4xeW-9" style="edgeStyle=orthogonalEdgeStyle;shape=link;html=1;entryX=0;entryY=0.167;entryDx=0;entryDy=0;entryPerimeter=0;strokeWidth=3;fontSize=30;endArrow=oval;endFill=1;" edge="1" parent="1" source="033BDEKzq4VgO9bZ4xeW-6" target="033BDEKzq4VgO9bZ4xeW-4">
                    <mxGeometry relative="1" as="geometry"/>
                </mxCell>
                <mxCell id="033BDEKzq4VgO9bZ4xeW-6" value="&lt;span style=&quot;font-size: 30px;&quot;&gt;&lt;b&gt;Tech Stacks&lt;/b&gt;&lt;/span&gt;" style="text;html=1;align=center;verticalAlign=middle;resizable=0;points=[];autosize=1;strokeColor=#3700CC;fillColor=#6a00ff;fontSize=35;fontColor=#ffffff;" vertex="1" parent="1">
                    <mxGeometry x="-1260" y="430" width="200" height="60" as="geometry"/>
                </mxCell>
                <mxCell id="033BDEKzq4VgO9bZ4xeW-10" style="edgeStyle=orthogonalEdgeStyle;shape=link;html=1;entryX=1;entryY=0.167;entryDx=0;entryDy=0;entryPerimeter=0;strokeWidth=3;fontSize=30;endArrow=oval;endFill=1;" edge="1" parent="1" source="033BDEKzq4VgO9bZ4xeW-8" target="033BDEKzq4VgO9bZ4xeW-4">
                    <mxGeometry relative="1" as="geometry"/>
                </mxCell>
                <mxCell id="033BDEKzq4VgO9bZ4xeW-8" value="&lt;b&gt;Dashboards&lt;/b&gt;" style="text;html=1;align=center;verticalAlign=middle;resizable=0;points=[];autosize=1;strokeColor=#006EAF;fillColor=#1ba1e2;fontSize=30;fontColor=#ffffff;strokeWidth=0;" vertex="1" parent="1">
                    <mxGeometry x="-440" y="430" width="200" height="50" as="geometry"/>
                </mxCell>
                <mxCell id="033BDEKzq4VgO9bZ4xeW-14" style="edgeStyle=orthogonalEdgeStyle;shape=link;html=1;entryX=1;entryY=0.353;entryDx=0;entryDy=0;entryPerimeter=0;strokeWidth=3;fontSize=29;fontColor=#00FF80;endArrow=oval;endFill=1;" edge="1" parent="1" source="033BDEKzq4VgO9bZ4xeW-12" target="033BDEKzq4VgO9bZ4xeW-8">
                    <mxGeometry relative="1" as="geometry"/>
                </mxCell>
                <mxCell id="033BDEKzq4VgO9bZ4xeW-12" value="" style="swimlane;startSize=0;strokeWidth=11;fontSize=30;strokeColor=#00FFFF;" vertex="1" parent="1">
                    <mxGeometry x="-300" y="670" width="470" height="270" as="geometry"/>
                </mxCell>
                <mxCell id="033BDEKzq4VgO9bZ4xeW-13" value="&lt;div style=&quot;text-align: justify; font-size: 29px;&quot;&gt;&lt;span style=&quot;background-color: initial;&quot;&gt;&lt;font style=&quot;font-size: 29px;&quot; color=&quot;#00ff80&quot;&gt;- Admin Dashboard&lt;/font&gt;&lt;/span&gt;&lt;/div&gt;&lt;font color=&quot;#00ff80&quot; style=&quot;font-size: 29px;&quot;&gt;&lt;div style=&quot;text-align: justify;&quot;&gt;&lt;span style=&quot;background-color: initial;&quot;&gt;- Teacher Dashboard&lt;/span&gt;&lt;/div&gt;&lt;div style=&quot;text-align: justify;&quot;&gt;&lt;span style=&quot;background-color: initial;&quot;&gt;- Student Dashboard&lt;/span&gt;&lt;/div&gt;&lt;div style=&quot;text-align: justify;&quot;&gt;&lt;span style=&quot;background-color: initial;&quot;&gt;- Parent Dashboard&lt;/span&gt;&lt;/div&gt;&lt;div style=&quot;text-align: justify;&quot;&gt;&lt;span style=&quot;background-color: initial;&quot;&gt;- Registrar &amp;amp; Finance Dashboard&lt;/span&gt;&lt;/div&gt;&lt;/font&gt;" style="text;html=1;align=center;verticalAlign=middle;resizable=0;points=[];autosize=1;strokeColor=none;fillColor=none;fontSize=30;" vertex="1" parent="033BDEKzq4VgO9bZ4xeW-12">
                    <mxGeometry x="5" y="25" width="450" height="190" as="geometry"/>
                </mxCell>
            </root>
        </mxGraphModel>
    </diagram>
</mxfile>